<svg width="327" height="222" viewBox="0 0 327 222" fill="none" xmlns="http://www.w3.org/2000/svg">
<path d="M216.99 29H260.652L251.684 61.8054H208.022H182.769H120.934L118.102 72.6618H205.19H248.852L228.319 149.129H65L73.7324 116.324H204.718L207.55 105.467H76.5645L97.0973 29H191.737H216.99V29Z" fill="#E06A58"/>
<path d="M72.5252 192.732C67.571 192.732 63.7037 190.351 63 186.02L67.9542 184.886C68.2739 187.475 70.1756 188.817 72.7167 188.817C74.6664 188.817 76.2166 187.954 76.2006 186.004C76.1847 183.831 73.6277 183.144 70.8149 182.281C67.4269 181.226 63.7991 179.979 63.7991 175.728C63.7991 171.429 67.315 169 71.9496 169C76.0088 169 80.1001 170.646 81.0272 175.073L76.3926 176.224C75.9611 173.922 74.4109 172.916 72.2375 172.916C70.3037 172.916 68.6576 173.715 68.6576 175.616C68.6576 177.39 70.9269 177.982 73.548 178.765C77.0319 179.82 81.1551 181.162 81.1551 185.765C81.1551 190.671 77.0479 192.733 72.5251 192.733L72.5252 192.732ZM99.91 169.319C104.433 169.319 107.245 172.676 107.245 176.783C107.245 180.986 104.433 184.134 99.91 184.134H95.0996V192.412H90.3051V169.319H99.9097L99.91 169.319ZM99.1105 180.123C101.508 180.123 102.626 178.796 102.626 176.719C102.626 174.721 101.508 173.331 99.1105 173.331H95.0992V180.123H99.1105V180.123ZM126.223 192.732C119.431 192.732 114.412 188.098 114.412 180.858C114.412 173.602 119.43 169 126.223 169C132.999 169 138.017 173.603 138.017 180.858C138.017 188.098 132.999 192.732 126.223 192.732ZM126.223 188.338C130.202 188.338 133.255 185.541 133.255 180.858C133.255 176.192 130.202 173.411 126.223 173.411C122.243 173.411 119.191 176.192 119.191 180.858C119.191 185.541 122.243 188.338 126.223 188.338ZM159.345 192.413L153.336 182.249H151.945V192.413H147.151V169.319H155.525C160.751 169.319 162.956 172.404 162.956 176.223C162.956 179.324 161.198 181.337 158.066 182.009L165.018 192.413H159.344L159.345 192.413ZM151.945 173.299V178.813H154.774C157.331 178.813 158.37 177.726 158.37 176.064C158.37 174.418 157.331 173.299 154.774 173.299H151.945ZM186.649 169.319V173.539H181.168V192.412H176.421V173.539H170.907V169.319H186.649H186.649ZM194.999 192.413V169.319H199.793V192.413H194.999ZM226.251 169.319H231.029V192.413H225.484L215.256 175.904V192.413H210.477V169.319H215.959L226.251 185.733V169.319H226.251ZM251.717 192.732C245.053 192.732 240.146 188.13 240.146 180.922C240.146 173.618 245.164 169 251.957 169C256.415 169 260.107 170.966 262.121 174.434L257.918 176.671C256.703 174.306 254.53 173.171 251.957 173.171C247.961 173.171 244.957 175.92 244.957 180.81C244.957 185.525 247.769 188.561 252.132 188.561C255.089 188.561 257.806 187.091 258.461 183.719H252.148V179.867H263V192.413H259.228V189.216C257.742 191.406 255.249 192.732 251.717 192.732L251.717 192.732Z" fill="#E06A58"/>
</svg>
